<?xml version="1.0" encoding="utf-8"?>
<!-- Generator: Adobe Illustrator 17.0.2, SVG Export Plug-In . SVG Version: 6.00 Build 0)  -->
<!DOCTYPE svg PUBLIC "-//W3C//DTD SVG 1.1//EN" "http://www.w3.org/Graphics/SVG/1.1/DTD/svg11.dtd">
<svg version="1.1" id="Layer_1" xmlns="http://www.w3.org/2000/svg" xmlns:xlink="http://www.w3.org/1999/xlink" x="0px" y="0px"
	 width="82px" height="68px" viewBox="14.8 -2.6 82 68" enable-background="new 14.8 -2.6 82 68" xml:space="preserve">
<rect x="-58.2" y="-34.7" display="none" fill="#010202" width="226.2" height="141.9"/>
<g id="dots">
	<path fill="#F3CA3B" d="M38.5,21.3c0,0.7-0.6,1.3-1.3,1.3s-1.3-0.6-1.3-1.3c0-0.7,0.6-1.3,1.3-1.3C37.9,19.9,38.5,20.5,38.5,21.3"
		/>
	<path fill="#F3CA3B" d="M69.9,21.3c0,1.6-1.3,2.9-2.9,2.9s-2.9-1.3-2.9-2.9s1.3-2.9,2.9-2.9C68.7,18.4,69.9,19.7,69.9,21.3"/>
	<path fill="#F3CA3B" d="M76.6,21.3c0,1.2-0.9,2.1-2.1,2.1s-2.1-0.9-2.1-2.1s0.9-2.1,2.1-2.1C75.7,19.2,76.6,20.1,76.6,21.3"/>
	<path fill="#F3CA3B" d="M55.9,4c-0.7,0-1.3-0.6-1.3-1.3s0.6-1.3,1.3-1.3s1.3,0.6,1.3,1.3S56.6,4,55.9,4"/>
	<path fill="#F3CA3B" d="M55.9,35.4c-1.6,0-2.9-1.3-2.9-2.9c0-1.6,1.3-2.9,2.9-2.9c1.6,0,2.9,1.3,2.9,2.9
		C58.7,34.1,57.5,35.4,55.9,35.4"/>
	<path fill="#F3CA3B" d="M55.9,42.1c-1.2,0-2.1-0.9-2.1-2.1c0-1.2,0.9-2.1,2.1-2.1c1.2,0,2.1,0.9,2.1,2.1C58,41.1,57,42.1,55.9,42.1
		"/>
	<path fill="#F3CA3B" d="M43.8,9.2c-0.6,0.6-1.6,0.6-2.2,0C41,8.6,41,7.6,41.6,7s1.6-0.6,2.2,0S44.4,8.6,43.8,9.2"/>
	<path fill="#F3CA3B" d="M49.3,14.7c-0.7,0.7-2,0.7-2.7,0c-0.8-0.7-0.8-2,0-2.7c0.7-0.7,2-0.7,2.7,0C50.1,12.8,50.1,14,49.3,14.7"/>
	<path fill="#F3CA3B" d="M65.8,31.2c-1.1,1.1-2.9,1.1-4.1,0c-1.1-1.1-1.1-2.9,0-4.1c1.1-1.1,2.9-1.1,4.1,0
		C66.9,28.3,66.9,30.1,65.8,31.2"/>
	<path fill="#F3CA3B" d="M70.6,36c-0.8,0.8-2.2,0.8-3,0s-0.8-2.2,0-3s2.2-0.8,3,0S71.4,35.2,70.6,36"/>
	<path fill="#F3CA3B" d="M67.6,9.6c-0.8-0.8-0.8-2.2,0-3s2.2-0.8,3,0s0.8,2.2,0,3C69.7,10.4,68.4,10.4,67.6,9.6"/>
	<path fill="#F3CA3B" d="M61.8,15.4c-1.1-1.1-1.1-2.9,0-4.1c1.1-1.1,2.9-1.1,4.1,0c1.1,1.1,1.1,2.9,0,4.1
		C64.7,16.5,62.9,16.5,61.8,15.4"/>
	<path fill="#F3CA3B" d="M45.9,31.2c-1.1-1.1-1.1-2.9,0-4.1c1.1-1.1,2.9-1.1,4.1,0c1.1,1.1,1.1,2.9,0,4.1S47,32.4,45.9,31.2"/>
	<path fill="#F3CA3B" d="M41.2,36c-0.8-0.8-0.8-2.2,0-3s2.2-0.8,3,0s0.8,2.2,0,3C43.3,36.8,42,36.8,41.2,36"/>
	<path fill="#F3CA3B" d="M55.9,12.2c-1.2,0-2.1-0.9-2.1-2.1S54.7,8,55.9,8C57,8,58,8.9,58,10.1S57,12.2,55.9,12.2"/>
	<path fill="#F3CA3B" d="M46.8,21.3c0,1.2-0.9,2.1-2.1,2.1c-1.2,0-2.1-0.9-2.1-2.1s0.9-2.1,2.1-2.1C45.8,19.2,46.8,20.1,46.8,21.3"
		/>
</g>
<text transform="matrix(1 0 0 1 17.2033 63.4824)" fill="#FFFFFF" font-family="'Helvetica-Bold'" font-size="13.2">SOLVATTEN</text>
</svg>
