<?xml version="1.0" encoding="utf-8"?>
<!-- Generator: Adobe Illustrator 17.0.2, SVG Export Plug-In . SVG Version: 6.00 Build 0)  -->
<!DOCTYPE svg PUBLIC "-//W3C//DTD SVG 1.1//EN" "http://www.w3.org/Graphics/SVG/1.1/DTD/svg11.dtd">
<svg version="1.1" id="Layer_1" xmlns="http://www.w3.org/2000/svg" xmlns:xlink="http://www.w3.org/1999/xlink" x="0px" y="0px"
	 width="467.9px" height="278.8px" viewBox="0 0 467.9 278.8" enable-background="new 0 0 467.9 278.8" xml:space="preserve">
<rect x="-270" y="-287.5" display="none" width="1000" height="1000"/>
<g id="handle_2_">
	<g id="handle">
		<g>
			<path fill="#FFFFFF" stroke="#FFFFFF" stroke-width="19" stroke-miterlimit="10" d="M229.6,16.8c0,0,39.3,0,62.2,0
				c23.2,0,33,24,36.5,32.7c6.4,16.1,8.9,30.9,8.9,30.9h-28.5V65.1c0,0-1.1-29.2-31.6-29.2c-17.9,0-54.7-0.1-54.7-0.1"/>
		</g>
	</g>
	<g id="handle_1_">
		<g>
			<path fill="#FFFFFF" stroke="#FFFFFF" stroke-width="19" stroke-miterlimit="10" d="M238.4,16.8c0,0-39.3,0-62.2,0
				c-23.2,0-33,24-36.5,32.7c-6.4,16.1-8.9,30.9-8.9,30.9h28.5V65.1c0,0,1.1-29.2,31.6-29.2c17.9,0,54.7-0.1,54.7-0.1"/>
		</g>
	</g>
</g>
<path id="container_1_" stroke="#FFFFFF" stroke-width="10" stroke-miterlimit="10" d="M6,278.8v-5V114.3c0-11,9-20,20-20H442
	c11,0,20,9,20,20v159.5v5"/>
<path id="containerInside" fill="#191919" d="M50,278.8V153.2c0-11,9-20,20-20h331.4c11,0,20,9,20,20v125.6H50z"/>
<rect id="blackBottomCap" x="370.7" y="70.7" fill="#FFFFFF" width="71" height="26.6"/>
<rect id="whiteBottomCap" x="27.8" y="70.7" fill="#FFFFFF" width="71" height="26.6"/>
<path id="blackTopCap" stroke="#FFFFFF" stroke-width="9" stroke-miterlimit="10" d="M369.2,73.2h73.2c0,0,0-23.8,0-30
	c0-11.4-14.5-10.6-14.5-10.6l-45.2,0c0,0-13.5-0.3-13.5,11.4C369.2,69.2,369.2,73.2,369.2,73.2z"/>
<path id="whiteTopCap" fill="#FFFFFF" stroke="#FFFFFF" stroke-width="9" stroke-miterlimit="10" d="M27.5,71.6h71
	c0,0,0-23.1,0-29.1c0-11.1-14.1-10.3-14.1-10.3l-43.8,0c0,0-13.1-0.3-13.1,11C27.5,67.7,27.5,71.6,27.5,71.6z"/>
<rect x="201.9" y="93.4" stroke="#FFFFFF" stroke-width="7" stroke-miterlimit="10" width="67.5" height="127.4"/>
<circle id="emiley" fill="#BC3231" cx="235.7" cy="186.6" r="26"/>
<path id="mouth" fill="none" stroke="#000000" stroke-width="2.1" stroke-miterlimit="10" d="M221,201.8c0-8.1,6.8-12.8,14.7-12.8
	c8.2,0,14.7,5,14.7,12.8"/>
<g id="eyes">
	<path id="mouth_1_" fill="none" stroke="#000000" stroke-width="2.1" stroke-miterlimit="10" d="M230.9,176.5
		c0,2.8-2.5,5.8-6.3,5.8c-3.5,0-6.3-2.4-6.3-5.8"/>
	<path id="mouth_2_" fill="none" stroke="#000000" stroke-width="2.1" stroke-miterlimit="10" d="M253,176.3c0,2.8-2.5,5.8-6.3,5.8
		c-3.5,0-6.3-2.4-6.3-5.8"/>
</g>
<rect x="214.7" y="83.7" fill="#FFFFFF" width="41.9" height="9.4"/>
<ellipse fill="#F4CA3B" stroke="#F4CA3B" stroke-width="2" stroke-miterlimit="10" cx="235.7" cy="81.7" rx="21" ry="8.5"/>
</svg>
