<?xml version="1.0" encoding="utf-8"?>
<!-- Generator: Adobe Illustrator 17.0.2, SVG Export Plug-In . SVG Version: 6.00 Build 0)  -->
<!DOCTYPE svg PUBLIC "-//W3C//DTD SVG 1.1//EN" "http://www.w3.org/Graphics/SVG/1.1/DTD/svg11.dtd">
<svg version="1.1" id="Layer_1" xmlns="http://www.w3.org/2000/svg" xmlns:xlink="http://www.w3.org/1999/xlink" x="0px" y="0px"
	 width="711.2px" height="694.5px" viewBox="0 0 711.2 694.5" enable-background="new 0 0 711.2 694.5" xml:space="preserve">
<rect x="-235.4" y="-225.9" display="none" width="1000" height="1000"/>
<g id="handle_2_">
	<g id="handle">
		<g>
			<path fill="#FFFFFF" stroke="#FFFFFF" stroke-width="19" stroke-miterlimit="10" d="M165.9,135c0,0,29-26.6,45.9-42
				c17.1-15.6,40.5-4.6,49-0.5c15.6,7.6,27.4,16.8,27.4,16.8l-21,19.2l-10.4-11.4c0,0-20.5-20.8-43-0.1
				c-13.2,12.1-40.4,36.9-40.4,36.9"/>
		</g>
	</g>
	<g id="handle_1_">
		<g>
			<path fill="#FFFFFF" stroke="#FFFFFF" stroke-width="19" stroke-miterlimit="10" d="M172.4,129c0,0-29,26.6-45.9,42
				c-17.1,15.6-8.1,39.9-4.8,48.8c6.1,16.3,14.3,28.8,14.3,28.8l21-19.2L146.6,218c0,0-18.9-22.3,3.7-42.9
				c13.2-12.1,40.3-37,40.3-37"/>
		</g>
	</g>
</g>
<path id="container" stroke="#FFFFFF" stroke-width="10" stroke-miterlimit="10" d="M699.9,374.1c7.5,8.1,6.9,20.8-1.3,28.3
	L391.8,683.3c-8.1,7.5-20.8,6.9-28.3-1.3L66.8,357.8c-7.5-8.1-6.9-20.8,1.3-28.3L375,48.7c8.1-7.5,20.8-6.9,28.3,1.3L699.9,374.1z"
	/>
<path id="containerInside" fill="#191919" d="M644.3,373.5c7.5,8.1,6.9,20.8-1.3,28.3L398.5,625.5c-8.1,7.5-20.8,6.9-28.3-1.3
	L125.5,356.8c-7.5-8.1-6.9-20.8,1.3-28.3l244.5-223.8c8.1-7.5,20.8-6.9,28.3,1.3L644.3,373.5z"/>
<rect id="blackBottomCap" x="306" y="52" transform="matrix(0.7377 -0.6752 0.6752 0.7377 45.5299 247.7202)" fill="#FFFFFF" width="71" height="26.6"/>
<path id="blackTopCap" stroke="#FFFFFF" stroke-width="9" stroke-miterlimit="10" d="M306,80.6l54-49.4c0,0-16.1-17.6-20.3-22.2
	c-7.7-8.4-17.9,2-17.9,2l-33.3,30.5c0,0-10.1,8.9-2.3,17.5C303.3,77.7,306,80.6,306,80.6z"/>
<rect id="whiteBottomCap" x="53.1" y="283.5" transform="matrix(0.7377 -0.6752 0.6752 0.7377 -177.1489 137.7003)" fill="#FFFFFF" width="71" height="26.6"/>
<g id="dots">
	<path fill="#FFFFFF" d="M281.3,388.6c2.6,2.8,2.4,7.3-0.4,9.9c-2.9,2.6-7.3,2.4-9.9-0.4c-2.6-2.9-2.4-7.3,0.4-9.9
		C274.3,385.6,278.7,385.8,281.3,388.6"/>
	<path fill="#FFFFFF" d="M401.9,278.2c5.6,6.1,5.2,15.6-0.9,21.2s-15.6,5.2-21.2-0.9s-5.2-15.6,0.9-21.2
		C386.9,271.7,396.3,272.1,401.9,278.2"/>
	<path fill="#FFFFFF" d="M427.7,254.7c4.1,4.5,3.8,11.4-0.7,15.5s-11.4,3.8-15.5-0.7s-3.8-11.4,0.7-15.5
		C416.6,249.9,423.6,250.2,427.7,254.7"/>
	<path fill="#FFFFFF" d="M286.9,261.1c-2.8,2.6-7.3,2.4-9.9-0.4s-2.4-7.3,0.4-9.9c2.9-2.6,7.3-2.4,9.9,0.4
		C290,254.1,289.8,258.5,286.9,261.1"/>
	<path fill="#FFFFFF" d="M397.3,381.8c-6.1,5.6-15.6,5.2-21.2-0.9s-5.2-15.6,0.9-21.2s15.6-5.2,21.2,0.9
		C403.9,366.7,403.4,376.2,397.3,381.8"/>
	<path fill="#FFFFFF" d="M420.9,407.5c-4.5,4.1-11.4,3.8-15.5-0.7s-3.8-11.4,0.7-15.5s11.4-3.8,15.5,0.7S425.4,403.4,420.9,407.5"/>
	<path fill="#FFFFFF" d="M258.7,323.8c-0.2,4.4-3.9,7.8-8.3,7.6c-4.4-0.2-7.8-3.9-7.6-8.3s3.9-7.8,8.3-7.6
		C255.5,315.6,258.9,319.3,258.7,323.8"/>
	<path fill="#FFFFFF" d="M299.6,325.6c-0.2,5.5-4.9,9.8-10.4,9.5c-5.5-0.2-9.8-4.9-9.5-10.4c0.2-5.5,4.9-9.8,10.4-9.5
		C295.5,315.4,299.8,320.1,299.6,325.6"/>
	<path fill="#FFFFFF" d="M421.1,330.9c-0.4,8.3-7.4,14.7-15.6,14.3c-8.3-0.4-14.7-7.4-14.3-15.6c0.4-8.3,7.4-14.7,15.6-14.3
		C415,315.7,421.4,322.7,421.1,330.9"/>
	<path fill="#FFFFFF" d="M455.9,332.5c-0.3,6.1-5.4,10.8-11.5,10.5s-10.8-5.4-10.5-11.5s5.4-10.8,11.5-10.5S456.2,326.4,455.9,332.5
		"/>
	<path fill="#FFFFFF" d="M351.7,241.6c-6.1-0.3-10.8-5.4-10.5-11.5s5.4-10.7,11.5-10.5c6.1,0.3,10.8,5.4,10.5,11.5
		C362.9,237.1,357.7,241.8,351.7,241.6"/>
	<path fill="#FFFFFF" d="M349.8,284.4c-8.3-0.4-14.7-7.4-14.3-15.6c0.4-8.3,7.4-14.7,15.6-14.3c8.3,0.4,14.7,7.4,14.3,15.6
		C365,278.4,358,284.8,349.8,284.4"/>
	<path fill="#FFFFFF" d="M344.6,400.9c-8.3-0.4-14.7-7.4-14.3-15.6c0.4-8.3,7.4-14.7,15.6-14.3c8.3,0.4,14.7,7.4,14.3,15.6
		C359.9,394.9,352.9,401.3,344.6,400.9"/>
	<path fill="#FFFFFF" d="M343.1,435.8c-6.1-0.3-10.8-5.4-10.5-11.5s5.4-10.7,11.5-10.5c6.1,0.3,10.8,5.4,10.5,11.5
		C354.3,431.3,349.1,436,343.1,435.8"/>
	<path fill="#FFFFFF" d="M315.9,292.8c-4.5,4.1-11.4,3.8-15.5-0.7s-3.8-11.4,0.7-15.5s11.4-3.8,15.5,0.7
		C320.7,281.7,320.4,288.7,315.9,292.8"/>
	<path fill="#FFFFFF" d="M312.9,359.7c4.1,4.5,3.8,11.4-0.7,15.5s-11.4,3.8-15.5-0.7s-3.8-11.4,0.7-15.5S308.8,355.2,312.9,359.7"/>
</g>
<rect x="196.7" y="177.8" transform="matrix(-0.7508 0.6606 -0.6606 -0.7508 501.683 175.7644)" fill="#FFFFFF" width="41.9" height="9.4"/>
<ellipse transform="matrix(-0.6606 -0.7508 0.7508 -0.6606 221.0214 454.8598)" fill="#F4CA3B" stroke="#F4CA3B" stroke-width="2" stroke-miterlimit="10" cx="213.3" cy="177.5" rx="8.5" ry="21"/>
<path fill="#5FC3EC" stroke="#5FC3EC" stroke-miterlimit="10" d="M61.5,557.7c-26.4,0-47.8-21.4-47.8-47.8c0-7.1,1.6-14,4.7-20.5
	c0.1-0.3,0.2-0.6,0.4-0.9l36.3-70.8c1.2-2.4,3.7-3.9,6.4-3.9c2.7,0,5.2,1.5,6.4,3.9l36.7,71.6c0.2,0.4,0.4,0.8,0.5,1.2
	c2.8,6.2,4.1,12.7,4.1,19.4C109.3,536.3,87.9,557.7,61.5,557.7"/>
<text transform="matrix(0.7357 -0.6773 0.6773 0.7357 383.1695 580.6387)" fill="#FFFFFF" font-family="'Helvetica-Bold'" font-size="49.2803">SOLVATTEN</text>
</svg>
