<?xml version="1.0" encoding="utf-8"?>
<!-- Generator: Adobe Illustrator 17.0.2, SVG Export Plug-In . SVG Version: 6.00 Build 0)  -->
<!DOCTYPE svg PUBLIC "-//W3C//DTD SVG 1.1//EN" "http://www.w3.org/Graphics/SVG/1.1/DTD/svg11.dtd">
<svg version="1.1" id="Layer_1" xmlns="http://www.w3.org/2000/svg" xmlns:xlink="http://www.w3.org/1999/xlink" x="0px" y="0px"
	 width="1040.8px" height="898.2px" viewBox="0 0 1040.8 898.2" enable-background="new 0 0 1040.8 898.2" xml:space="preserve">
<rect x="-816.7" y="42.6" display="none" width="2000" height="1010.7"/>
<g id="rightContainer">
	<g id="handle_2_">
		<g id="handle">
			<g>
				<path fill="#FFFFFF" stroke="#FFFFFF" stroke-width="19" stroke-miterlimit="10" d="M783.8,373.4c0,0,38.3,7,62,11.3
					c25.2,4.6,29.1,24,30.4,31.2c2.5,13.4,0.9,24.9,0.9,24.9l-31.7-7.3l4.5-11c0,0,7.4-21.1-25-27.4c-18-3.5-53-10.4-53-10.4"/>
			</g>
		</g>
		<g id="handle_1_">
			<g>
				<path fill="#FFFFFF" stroke="#FFFFFF" stroke-width="19" stroke-miterlimit="10" d="M792.1,375c0,0-36.1-6.6-55.9-10.2
					c-19.2-3.5-33,9.7-37.9,14.5c-9,8.7-14.5,17.2-14.5,17.2l22.4,5.1l3.9-9.5c0,0,8.2-17.9,33.9-12.8c15.8,3.1,49.9,9.7,49.9,9.7"
					/>
			</g>
		</g>
	</g>
	<path id="container" fill="#181818" stroke="#FFFFFF" stroke-width="10" stroke-miterlimit="10" d="M878.3,882.8
		c-3.8,9.4-18.6,9.3-32.7-0.1L499.6,652c-6-4-8.9-12.1-6.4-18.1l97.1-238.8c2.4-6,10-9.5,17-7.8l400.8,96.2
		c16.3,3.9,26.7,14.8,22.8,24.2L878.3,882.8z"/>
	<polygon id="blackBottomCap" fill="#FFFFFF" points="911.7,462.9 1006.4,485.9 1015.4,463.7 920,442.5 	"/>
	<path id="blackTopCap" fill="#FFFFFF" stroke="#FFFFFF" stroke-width="9" stroke-miterlimit="10" d="M918.5,442.7l98.4,21.9
		c0,0,8.1-19.9,10.2-25c3.9-9.5-17.6-12.9-17.6-12.9l-61.3-11.8c0,0-17-3.5-20.6,5.4C919.7,439.7,918.5,442.7,918.5,442.7z"/>
	<polygon id="whiteBottomCap" fill="#FFFFFF" points="607.7,389.2 655.9,400.9 662.3,385.3 613.7,374.5 	"/>
	<path id="whiteTopCap" stroke="#FFFFFF" stroke-width="6" stroke-miterlimit="10" d="M613.9,373.9l48.6,10.8c0,0,5.5-13.6,6.9-17.1
		c2.6-6.5-7.8-8-7.8-8l-30.3-5.8c0,0-8.6-1.8-11.1,4.5C614.8,371.8,613.9,373.9,613.9,373.9z"/>
	<g>
		<polygon fill="#FFFFFF" points="786.8,430.4 748.1,421.1 750.5,415 789.4,424 		"/>
		<path fill="#F4CA3B" stroke="#F4CA3B" stroke-width="2" stroke-miterlimit="10" d="M789.9,422.7c-1.3,3.2-11.3,3.6-22.1,1
			c-10.6-2.5-18-7-16.7-10c1.2-3,10.7-3.6,21.3-1.2C783.3,414.9,791.2,419.5,789.9,422.7z"/>
	</g>
</g>
<g id="leftContainer">
	<g id="handle_3_">
		<g id="handle_5_">
			<g>
				<path fill="#FFFFFF" stroke="#FFFFFF" stroke-width="4" stroke-miterlimit="10" d="M483.1,320.6c0,0,17.9,3.3,28.8,5.2
					c11.4,2.1,11.6,14.6,11.6,19.2c0,8.6-1.6,16.1-1.6,16.1l-14.1-3.2l3-7.4c0,0,5.2-14.1-9.5-17c-8.4-1.6-24.8-4.9-24.8-4.9"/>
			</g>
		</g>
		<g id="handle_4_">
			<g>
				<path fill="#FFFFFF" stroke="#FFFFFF" stroke-width="4" stroke-miterlimit="10" d="M487,321.3c0,0-17.2-3.1-26.9-4.9
					c-9.5-1.7-17.6,7.9-20.5,11.4c-5.3,6.4-8.8,12.5-8.8,12.5l11.1,2.6l2.7-6.7c0,0,5.6-12.6,18.2-10.1c7.6,1.5,23.8,4.6,23.8,4.6"
					/>
			</g>
		</g>
	</g>
	<path id="container_3_" fill="#181818" stroke="#FFFFFF" stroke-width="10" stroke-miterlimit="10" d="M487.9,630.3
		c-2.4,6-9.1,7.7-14.7,3.9L313,527.5c-3.2-2.1-4.3-7.4-2.5-11.8l70.8-174.1c1.8-4.4,6.2-7.2,9.9-6.3l185.5,44.5
		c6.6,1.6,10,7.7,7.6,13.7L487.9,630.3z"/>
	<polygon id="blackBottomCap_1_" fill="#FFFFFF" points="536.1,371.7 575.8,381.3 581.5,367.1 541.6,358.3 	"/>
	<path id="blackTopCap_1_" stroke="#FFFFFF" stroke-width="6" stroke-miterlimit="10" d="M540.9,358.5l41.2,9.2c0,0,5.1-12.7,6.5-16
		c2.5-6.1-6.4-7.3-6.4-7.3l-25.7-4.9c0,0-7.3-1.5-9.7,4.3C541.7,356.5,540.9,358.5,540.9,358.5z"/>
	<polygon id="whiteBottomCap_1_" fill="#FFFFFF" points="391.3,336.6 416.2,342.6 420.8,331.5 395.6,325.9 	"/>
	<g>
		<polygon fill="#FFFFFF" points="480.3,356.6 461.9,352.2 463.7,348 482,352.3 		"/>
		<path fill="#F4CA3B" stroke="#F4CA3B" stroke-width="2" stroke-miterlimit="10" d="M482.4,351.3c-0.9,2.2-5.8,2.9-10.9,1.7
			c-5-1.2-8.3-3.9-7.5-6c0.9-2.1,5.6-2.9,10.6-1.8C479.8,346.5,483.3,349.2,482.4,351.3z"/>
	</g>
</g>
<g id="sun">
	<path fill="#F4CA3B" d="M173.2,105.3c-36.2,0-65.7,29.5-65.7,65.7c0,36.2,29.5,65.7,65.7,65.7c36.2,0,65.7-29.5,65.7-65.7
		C238.9,134.8,209.5,105.3,173.2,105.3 M173.2,265.2c-52,0-94.2-42.2-94.2-94.2c0-51.9,42.3-94.2,94.2-94.2
		c51.9,0,94.2,42.3,94.2,94.2C267.4,223,225.2,265.2,173.2,265.2"/>
	<path fill="#F4CA3B" d="M173.2,105.3c-7.9,0-14.2-6.4-14.2-14.2V21.9c0-7.9,6.4-14.2,14.2-14.2c7.9,0,14.3,6.4,14.3,14.2v69.2
		C187.5,99,181.1,105.3,173.2,105.3"/>
	<path fill="#F4CA3B" d="M173.2,337.5c-7.9,0-14.2-6.4-14.2-14.2V254c0-7.9,6.4-14.2,14.2-14.2c7.9,0,14.3,6.4,14.3,14.2v69.2
		C187.5,331.1,181.1,337.5,173.2,337.5"/>
	<path fill="#F4CA3B" d="M323.9,186.8h-69.2c-7.9,0-14.3-6.4-14.3-14.2c0-7.9,6.4-14.2,14.3-14.2h69.2c7.9,0,14.3,6.4,14.3,14.2
		C338.2,180.4,331.8,186.8,323.9,186.8"/>
	<path fill="#F4CA3B" d="M91.7,186.8H22.5c-7.9,0-14.3-6.4-14.3-14.2c0-7.9,6.4-14.2,14.3-14.2h69.2c7.9,0,14.2,6.4,14.2,14.2
		C106,180.4,99.6,186.8,91.7,186.8"/>
	<path fill="#F4CA3B" d="M230.8,129.2c-3.6,0-7.3-1.4-10.1-4.2c-5.6-5.6-5.6-14.6,0-20.2L269.7,56c5.6-5.6,14.6-5.6,20.2,0
		c5.6,5.6,5.6,14.6,0,20.1L240.9,125C238.1,127.8,234.5,129.2,230.8,129.2"/>
	<path fill="#F4CA3B" d="M66.7,293.3c-3.6,0-7.3-1.4-10.1-4.2c-5.6-5.6-5.6-14.6,0-20.1l48.9-48.9c5.6-5.6,14.6-5.6,20.1,0
		c5.6,5.6,5.6,14.6,0,20.1l-48.9,48.9C74,291.9,70.3,293.3,66.7,293.3"/>
	<path fill="#F4CA3B" d="M279.8,293.3c-3.6,0-7.3-1.4-10.1-4.2l-48.9-48.9c-5.6-5.6-5.6-14.6,0-20.1c5.6-5.6,14.6-5.6,20.1,0
		l48.9,48.9c5.6,5.6,5.6,14.6,0,20.1C287.1,291.9,283.4,293.3,279.8,293.3"/>
	<path fill="#F4CA3B" d="M115.6,129.2c-3.6,0-7.3-1.4-10.1-4.2L56.6,76.1C51,70.6,51,61.5,56.6,56c5.6-5.6,14.6-5.6,20.2,0
		l48.9,48.9c5.6,5.6,5.6,14.6,0,20.2C122.9,127.8,119.2,129.2,115.6,129.2"/>
</g>
<path id="whiteTopCap_2_" fill="#FFFFFF" stroke="#FFFFFF" stroke-width="9" stroke-miterlimit="10" d="M398.5,322.7l23.4,5.6
	c0,0,2.4-5.9,3-7.5c1.2-2.8-3.8-3.7-3.8-3.7l-14.6-3.1c0,0-4.1-0.9-5.2,1.8C398.9,321.8,398.5,322.7,398.5,322.7z"/>
</svg>
